<svg xmlns="http://www.w3.org/2000/svg" viewBox="0 0 64 64" role="img" aria-label="课程达成度分析系统图标">
  <defs>
    <linearGradient id="g" x1="0%" x2="100%" y1="0%" y2="100%">
      <stop offset="0%" stop-color="#10293c"/>
      <stop offset="100%" stop-color="#1f7a6d"/>
    </linearGradient>
  </defs>
  <rect width="64" height="64" rx="18" fill="url(#g)"/>
  <path d="M18 44V20h8.5c4.1 0 7.5 1.1 10 3.4 2.5 2.2 3.8 5.1 3.8 8.6 0 3.5-1.3 6.4-3.8 8.6-2.5 2.3-5.9 3.4-10 3.4H18Zm6-5h2.1c2.4 0 4.3-.6 5.8-1.9 1.4-1.3 2.1-3 2.1-5.1s-.7-3.9-2.1-5.1c-1.5-1.3-3.4-1.9-5.8-1.9H24v14Z" fill="#f5fbfa"/>
  <circle cx="47" cy="20" r="5" fill="#ffd36a"/>
</svg>
